<svg width="22" height="24" viewBox="0 0 22 24" fill="none" xmlns="http://www.w3.org/2000/svg">
<path d="M19.1962 18.1639C18.6777 17.6198 18.173 17.0601 17.6827 16.4854C17.2709 16.027 17.0229 15.6935 17.0229 15.6935L13.9228 14.072C15.1639 12.5301 15.8489 10.5452 15.8493 8.4895C15.8493 3.80936 12.3728 0 8.09907 0C3.82539 0 0.348877 3.80936 0.348877 8.4895C0.348877 13.1696 3.82539 16.979 8.09907 16.979C10.051 16.979 11.8302 16.1786 13.1954 14.87L14.6757 18.2658C14.6757 18.2658 14.9801 18.5374 15.3986 18.9886C15.8271 19.4288 16.3907 20.0243 16.931 20.6465L18.4345 22.3347L19.1032 23.1181L21.4515 20.5458L20.7363 19.8133C20.3167 19.3621 19.7565 18.763 19.1962 18.1639ZM8.09907 14.5534C5.0466 14.5534 2.56322 11.8332 2.56322 8.4895C2.56322 5.14585 5.0466 2.42557 8.09907 2.42557C11.1515 2.42557 13.6349 5.14585 13.6349 8.4895C13.6349 11.8332 11.1515 14.5534 8.09907 14.5534Z" fill="white"/>
</svg>
