<svg width="75" height="75" viewBox="0 0 75 75" fill="none" xmlns="http://www.w3.org/2000/svg">
<circle cx="37.5" cy="37.5" r="37.5" fill="#F9C784"/>
<path d="M53.9189 50.2852C52.9978 48.1034 51.6612 46.1216 49.9834 44.4502C48.3107 42.774 46.3292 41.4375 44.1484 40.5146C44.1289 40.5049 44.1094 40.5 44.0898 40.4902C47.1318 38.293 49.1094 34.7139 49.1094 30.6758C49.1094 23.9863 43.6894 18.5664 37 18.5664C30.3105 18.5664 24.8906 23.9863 24.8906 30.6758C24.8906 34.7139 26.8682 38.293 29.9102 40.4951C29.8906 40.5049 29.8711 40.5098 29.8516 40.5195C27.6641 41.4424 25.7012 42.7656 24.0166 44.4551C22.3404 46.1278 21.0039 48.1092 20.0811 50.29C19.1744 52.4251 18.6855 54.7141 18.6406 57.0332C18.6393 57.0853 18.6485 57.1372 18.6675 57.1857C18.6866 57.2342 18.7151 57.2784 18.7515 57.3158C18.7879 57.3531 18.8314 57.3827 18.8795 57.403C18.9275 57.4232 18.9791 57.4336 19.0312 57.4336H21.9609C22.1758 57.4336 22.3467 57.2627 22.3516 57.0527C22.4492 53.2832 23.9629 49.7529 26.6387 47.0772C29.4072 44.3086 33.084 42.7852 37 42.7852C40.916 42.7852 44.5928 44.3086 47.3613 47.0772C50.0371 49.7529 51.5508 53.2832 51.6484 57.0527C51.6533 57.2676 51.8242 57.4336 52.0391 57.4336H54.9687C55.0209 57.4336 55.0725 57.4232 55.1205 57.403C55.1686 57.3827 55.2121 57.3531 55.2485 57.3158C55.2849 57.2784 55.3134 57.2342 55.3325 57.1857C55.3515 57.1372 55.3607 57.0853 55.3594 57.0332C55.3105 54.6992 54.8271 52.4287 53.9189 50.2852ZM37 39.0742C34.7588 39.0742 32.6494 38.2002 31.0625 36.6133C29.4756 35.0264 28.6016 32.917 28.6016 30.6758C28.6016 28.4346 29.4756 26.3252 31.0625 24.7383C32.6494 23.1514 34.7588 22.2773 37 22.2773C39.2412 22.2773 41.3506 23.1514 42.9375 24.7383C44.5244 26.3252 45.3984 28.4346 45.3984 30.6758C45.3984 32.917 44.5244 35.0264 42.9375 36.6133C41.3506 38.2002 39.2412 39.0742 37 39.0742Z" fill="white"/>
</svg>
